<svg width="311" height="273" viewBox="0 0 311 273" fill="none" xmlns="http://www.w3.org/2000/svg">
<path d="M0.00222295 134.798C0.425788 59.9286 61.4625 -0.421288 136.331 0.00222048C211.2 0.425786 271.55 61.4624 271.127 136.331L270.651 220.474C225.786 162.566 163.336 184.028 136.688 211.925C219.447 181.229 267.068 237.026 310.019 272.118L134.798 271.127C59.9286 270.703 -0.421284 209.667 0.00222295 134.798ZM63.1193 134.487C95.3591 138.475 121.553 166.125 124.76 198.514C132.429 166.269 155.659 140.86 188.332 137.728C155.752 133.673 129.675 99.9915 126.422 71.1963C118.753 103.441 95.452 131.289 63.1193 134.487Z" fill="#510ED6"/>
</svg>
