<svg width="176" height="149" viewBox="0 0 176 149" fill="none" xmlns="http://www.w3.org/2000/svg">
<path fill-rule="evenodd" clip-rule="evenodd" d="M73.4326 6.00002C81.4327 -2.00012 94.404 -1.99989 102.404 6.00002L175.838 79.4336L132.305 122.966H120.011C112.683 122.966 105.759 126.328 101.228 132.087L87.9189 149L74.1787 132.176C69.6396 126.618 62.8431 123.393 55.667 123.393H43.959L0 79.4336L73.4326 6.00002ZM97.5762 46.4111C92.2427 41.0778 83.5952 41.0787 78.2617 46.4121L45.2402 79.4336L57.3867 91.5806C62.4635 96.6577 70.6948 96.6578 75.7717 91.5809L87.9189 79.4336L100.066 91.5808C105.143 96.6577 113.374 96.6577 118.451 91.5806L130.598 79.4336L97.5762 46.4111Z" fill="url(#paint0_linear_2659_24)"/>
<defs>
<linearGradient id="paint0_linear_2659_24" x1="88" y1="-0.125976" x2="91.5" y2="141.874" gradientUnits="userSpaceOnUse">
<stop stop-color="#8A29F3"/>
<stop offset="1" stop-color="#865DFF"/>
</linearGradient>
</defs>
</svg>
