<svg width="331" height="58" viewBox="0 0 331 58" fill="none" xmlns="http://www.w3.org/2000/svg">
<path d="M211.602 43.278C214.33 46.0062 217.811 47.3232 222.044 47.3232H239.166C244.517 47.3232 248.855 51.6614 248.855 57.0129H222.232C218.469 57.0129 214.989 56.4484 211.79 55.3195C208.497 54.0966 205.675 52.4032 203.323 50.2395C200.972 48.0758 199.184 45.3476 197.867 42.3372C196.55 39.2328 195.891 35.9402 195.891 32.4594C195.891 28.9786 196.55 25.686 197.867 22.5816C199.184 19.5712 200.972 16.9371 203.323 14.7734C205.675 12.6097 208.497 11.0104 211.79 9.78742C214.989 8.65853 218.469 8 222.232 8H235.121C240.483 8 244.528 9.41112 247.35 12.2334C250.078 15.0556 251.49 18.7245 251.49 23.3342C251.49 27.5675 250.173 30.7661 247.727 32.8357C245.187 34.9053 241.235 37.2572 235.873 37.2572H208.121C208.78 39.6091 209.909 41.5846 211.602 43.278ZM211.602 21.3586C209.626 23.3342 208.309 25.7801 207.839 28.7905H233.615C235.967 28.7905 237.661 28.4142 238.695 27.5675C239.824 26.7209 240.295 25.3097 240.295 23.4282C240.295 19.289 238.037 17.2193 233.427 17.2193H222.044C217.811 17.2193 214.33 18.6304 211.602 21.3586Z" fill="white"/>
<path d="M193.891 45.8347C193.891 52.2773 188.669 57.5 182.226 57.5V11.6653C182.226 5.22271 187.449 0 193.891 0V45.8347Z" fill="white"/>
<path d="M178.251 22.5816C179.568 25.686 180.226 28.8846 180.226 32.4594C180.226 35.9402 179.568 39.2328 178.251 42.3372C176.934 45.3476 175.052 47.9817 172.7 50.2395C170.348 52.4032 167.526 54.0966 164.328 55.3195C161.035 56.4484 157.554 57.0129 153.885 57.0129H147.018C143.255 57.0129 139.774 56.4484 136.576 55.3195C133.283 54.0966 130.461 52.4032 128.109 50.2395C125.757 47.9817 123.97 45.3476 122.653 42.3372C121.336 39.2328 120.677 35.9402 120.677 32.4594C120.677 28.8846 121.336 25.686 122.653 22.5816C123.97 19.5712 125.757 16.9371 128.109 14.7734C130.461 12.6097 133.283 11.0104 136.576 9.78742C139.774 8.65853 143.255 8 147.018 8H153.885C157.554 8 161.035 8.65853 164.328 9.78742C167.526 11.0104 170.348 12.6097 172.7 14.7734C175.052 16.9371 176.934 19.5712 178.251 22.5816ZM164.328 42.4313C167.056 39.7972 168.467 36.5046 168.467 32.4594C168.467 28.4142 167.056 25.2157 164.328 22.5816C161.505 20.0416 158.025 18.7245 153.885 18.7245H146.83C142.69 18.7245 139.21 20.0416 136.482 22.5816C133.659 25.2157 132.248 28.4142 132.248 32.4594C132.248 36.5046 133.659 39.7972 136.482 42.4313C139.21 45.0654 142.69 46.2884 146.83 46.2884H153.885C158.025 46.2884 161.505 45.0654 164.328 42.4313Z" fill="white"/>
<path d="M118.677 57.107C112.182 57.107 106.918 51.8421 106.918 45.3476V8C113.412 8 118.677 13.2648 118.677 19.7593V57.107Z" fill="white"/>
<path d="M82.716 18.7245C78.5767 18.7245 75.096 20.0416 72.2738 22.5816C69.5456 25.2157 68.1345 28.4142 68.1345 32.4594C68.1345 36.5046 69.5456 39.7972 72.2738 42.4313C75.096 45.0654 78.5767 46.2884 82.716 46.2884H104.918V57.0129H82.9042C79.1412 57.0129 75.6604 56.4484 72.4619 55.3195C69.1693 54.0966 66.347 52.4032 63.9952 50.2395C61.6433 47.9817 59.8559 45.3476 58.5389 42.3372C57.2218 39.2328 56.5633 35.9402 56.5633 32.4594C56.5633 28.8846 57.2218 25.686 58.5389 22.5816C59.8559 19.5712 61.6433 16.9371 63.9952 14.7734C66.347 12.6097 69.1693 11.0104 72.4619 9.78742C75.6604 8.65853 79.1412 8 82.9042 8H104.918V18.7245H82.716Z" fill="white"/>
<path d="M48.3544 14.0208C52.4936 18.066 54.5633 23.8986 54.5633 31.4246V57.107H15.3342C10.3482 57.107 6.58522 55.7899 3.95114 53.1558C1.31704 50.5217 0 47.041 0 42.7135C0 38.198 1.31704 34.7172 3.95114 31.989C6.58522 29.3549 10.3482 28.0379 15.3342 28.0379H42.804C42.4277 25.3097 41.3928 23.0519 39.6995 21.3586C37.5358 19.1949 34.2432 18.1601 29.9157 18.1601H12.8882C7.27699 18.1601 2.72816 13.6112 2.72816 8H30.1039C38.1943 8 44.2151 10.0696 48.3544 14.0208ZM42.9921 47.8876V35.6579H17.8742C15.6164 35.6579 13.923 36.2224 12.7942 37.3513C11.6653 38.3861 11.1008 39.8913 11.1008 41.7728C11.1008 43.6543 11.6653 45.1595 12.7942 46.1943C13.923 47.3232 15.6164 47.8876 17.7801 47.8876H42.9921Z" fill="white"/>
<path d="M312.307 57.8281H281.778C267.801 57.8281 256.49 46.4255 256.49 32.4482V9.0918C262.838 9.0918 267.984 14.2379 267.984 20.5859V32.4482C267.984 40.0806 274.146 46.2422 281.778 46.2422H300.72V9.0918H312.307V57.8281Z" fill="url(#paint0_linear_2664_55)"/>
<path d="M318.812 9C325.262 9.00026 330.49 14.2291 330.49 20.6787V57.7363C324.04 57.7362 318.812 52.5081 318.812 46.0586V9Z" fill="url(#paint1_linear_2664_55)"/>
<defs>
<linearGradient id="paint0_linear_2664_55" x1="284.398" y1="9.0918" x2="284.398" y2="57.8283" gradientUnits="userSpaceOnUse">
<stop stop-color="#7C3AED"/>
<stop offset="1" stop-color="#9152FD"/>
</linearGradient>
<linearGradient id="paint1_linear_2664_55" x1="284.398" y1="9.0918" x2="284.398" y2="57.8283" gradientUnits="userSpaceOnUse">
<stop stop-color="#7C3AED"/>
<stop offset="1" stop-color="#9152FD"/>
</linearGradient>
</defs>
</svg>
