<svg width="650" height="138" viewBox="0 0 650 138" fill="none" xmlns="http://www.w3.org/2000/svg">
<path d="M616.582 135.744V0H649.109V135.744H616.582Z" fill="url(#paint0_linear_57_26)"/>
<path d="M443 65.3107V0.256104H475.015V65.3107C475.015 86.5687 492.175 103.729 513.433 103.729H566.194V0.256104H598.465V136H513.433C474.503 136 443 104.241 443 65.3107Z" fill="url(#paint1_linear_57_26)"/>
<path d="M436.759 0L437 84.3566L436.76 85.7524C435.801 113.9 412.548 136 383.781 136H297.24C297.24 119.683 310.468 106.456 326.784 106.456H383.781C395.048 106.456 404.637 98.3143 406.555 87.3808V86.9155V85.5198H360.768C325.768 85.5198 297.24 57.8371 297.24 23.8734L297 0H327.445L327.685 23.8734C327.685 32.248 331.281 40.39 337.514 46.4384C343.747 52.4867 351.898 55.7435 360.768 55.7435H406.795L406.554 0H436.759Z" fill="#2F2F2F"/>
<path d="M229.626 29.782C218.132 29.782 208.465 33.4395 200.628 40.4931C193.052 47.808 189.133 56.6904 189.133 67.9239C189.133 79.1575 193.052 88.3011 200.628 95.616C208.465 102.931 218.132 106.327 229.626 106.327H261.498C277.947 106.327 291.28 119.661 291.28 136.109H230.149C219.699 136.109 210.033 134.542 201.151 131.407C192.007 128.011 184.17 123.308 177.638 117.299C171.107 111.03 166.144 103.715 162.486 95.3548C158.829 86.7337 157 77.59 157 67.9239C157 57.9966 158.829 49.1142 162.486 40.4931C166.144 32.1332 171.107 24.8184 177.638 18.8097C184.17 12.801 192.007 8.35987 201.151 4.96367C210.033 1.82873 219.699 0 230.149 0H291.28C291.28 16.4482 277.947 29.782 261.498 29.782H229.626Z" fill="#2F2F2F"/>
<path d="M134.28 17.7197C145.775 28.9533 151.523 45.1506 151.523 66.0502V137.37H42.5831C28.7371 137.37 18.2872 133.713 10.9723 126.398C3.65744 119.083 0 109.417 0 97.3997C0 84.8599 3.65744 75.1938 10.9723 67.6177C18.2872 60.3028 28.7371 56.6454 42.5831 56.6454H118.867C117.822 49.0693 114.948 42.7993 110.246 38.0969C104.237 32.0883 95.0935 29.2146 83.0762 29.2146H35.7907C20.2082 29.2146 7.57613 16.5825 7.57613 1H83.5987C106.066 1 122.786 6.74741 134.28 17.7197ZM119.389 111.768V77.8063H49.6367C43.3668 77.8063 38.6644 79.3738 35.5294 82.5087C32.3945 85.3824 30.827 89.5624 30.827 94.7873C30.827 100.012 32.3945 104.192 35.5294 107.066C38.6644 110.201 43.3668 111.768 49.3755 111.768H119.389Z" fill="#2F2F2F"/>
<defs>
<linearGradient id="paint0_linear_57_26" x1="632.846" y1="0" x2="632.846" y2="135.744" gradientUnits="userSpaceOnUse">
<stop stop-color="#7C3AED"/>
<stop offset="1" stop-color="#9152FD"/>
</linearGradient>
<linearGradient id="paint1_linear_57_26" x1="520.733" y1="0.256104" x2="520.733" y2="136" gradientUnits="userSpaceOnUse">
<stop stop-color="#7C3AED"/>
<stop offset="1" stop-color="#9152FD"/>
</linearGradient>
</defs>
</svg>
